<svg xmlns="http://www.w3.org/2000/svg" width="40" height="40" viewBox="0 0 40 40">
  <g id="Group_13" data-name="Group 13" transform="translate(-1805 126)">
    <rect id="Rectangle_18" data-name="Rectangle 18" width="40" height="40" transform="translate(1805 -126)" fill="none"/>
    <g id="shopping-cart" transform="translate(1807.667 -124.222)">
      <g id="Group_2" data-name="Group 2" transform="translate(8.889 28.148)">
        <g id="Group_1" data-name="Group 1">
          <path id="Path_1" data-name="Path 1" d="M131.7,405.333a3.7,3.7,0,1,0,3.7,3.7A3.668,3.668,0,0,0,131.7,405.333Zm0,5.926a2.222,2.222,0,1,1,2.222-2.222A2.278,2.278,0,0,1,131.7,411.259Z" transform="translate(-128 -405.333)" fill="#867d74"/>
        </g>
      </g>
      <g id="Group_4" data-name="Group 4">
        <g id="Group_3" data-name="Group 3">
          <path id="Path_2" data-name="Path 2" d="M35.407,7.7a.77.77,0,0,0-.593-.3h-4.3l.889-.889a3.71,3.71,0,0,0,1.185-2.667,3.71,3.71,0,0,0-1.185-2.667,3.755,3.755,0,0,0-5.333,0l-.889.889V.741A.7.7,0,0,0,24.444,0H18.519a.7.7,0,0,0-.741.741V4.889L13.185.3a.716.716,0,0,0-1.037,0L7.7,4.741a.716.716,0,0,0,0,1.037l1.63,1.63H6.667L5.926,3.556c0-.3-.444-.593-.741-.593H.741A.7.7,0,0,0,0,3.7a.7.7,0,0,0,.741.741H4.593L8.148,22.519a5.22,5.22,0,0,0,5.037,4.148H30.222a.741.741,0,0,0,0-1.482H13.333a3.415,3.415,0,0,1-2.963-1.63L32,20.593A.637.637,0,0,0,32.593,20L35.556,8.148A.732.732,0,0,0,35.407,7.7ZM25.185,4.148l1.926-1.926a2.325,2.325,0,0,1,3.259,0,2.379,2.379,0,0,1,.741,1.63,2.379,2.379,0,0,1-.741,1.63L28.444,7.407H25.185ZM19.259,1.481H23.7V7.407H20.3L19.259,6.37V1.481ZM9.185,5.185l3.407-3.407,5.63,5.63H11.407ZM31.259,19.259,9.63,22.074,6.963,8.741H33.778Z" fill="#867d74"/>
        </g>
      </g>
      <g id="Group_6" data-name="Group 6" transform="translate(23.704 28.148)">
        <g id="Group_5" data-name="Group 5">
          <path id="Path_3" data-name="Path 3" d="M345.038,405.333a3.7,3.7,0,1,0,3.7,3.7A3.668,3.668,0,0,0,345.038,405.333Zm0,5.926a2.222,2.222,0,1,1,2.222-2.222A2.278,2.278,0,0,1,345.038,411.259Z" transform="translate(-341.334 -405.333)" fill="#867d74"/>
        </g>
      </g>
    </g>
  </g>
</svg>
