<svg xmlns="http://www.w3.org/2000/svg" width="52.32" height="22.53" viewBox="0 0 52.32 22.53">
  <path id="Path_9" data-name="Path 9" d="M1.2,0V-22.05H3.75c3,0,4.62.6,5.49,2.28.84,1.68.96,4.44.96,8.76s-.12,7.05-.96,8.73C8.37-.6,6.75,0,3.75,0ZM4.44-3.24c1.11,0,1.74-.12,2.07-1.2a9.651,9.651,0,0,0,.3-2.34c.03-1.05.03-2.46.03-4.26s0-3.21-.03-4.26a10.117,10.117,0,0,0-.3-2.34c-.33-1.05-.96-1.17-2.07-1.17ZM15.36-22.05h7.41v3.33H18.6v5.79h3v3.54h-3v6.06h4.17V0H15.36ZM32.94,0,30.87-13.86l-.12-.93h-.18V0h-3V-22.05h3.96l1.92,10.08.15,1.17h.06l.15-1.17,1.92-10.08h3.96V0h-3V-14.79h-.18l-.12.93L34.32,0ZM53.52-4.53a6.007,6.007,0,0,1-.54,2.4A4.128,4.128,0,0,1,51.69-.51,3.851,3.851,0,0,1,49.2.24a3.941,3.941,0,0,1-2.52-.75,4.045,4.045,0,0,1-1.26-1.62,6.007,6.007,0,0,1-.54-2.4V-17.52a5.979,5.979,0,0,1,.54-2.37,4.129,4.129,0,0,1,1.26-1.65,4.127,4.127,0,0,1,2.52-.75,4.032,4.032,0,0,1,2.49.75,4.212,4.212,0,0,1,1.29,1.65,5.979,5.979,0,0,1,.54,2.37ZM50.28-17.52a2,2,0,0,0-.42-1.38.934.934,0,0,0-.66-.24,1,1,0,0,0-.96.81,2.3,2.3,0,0,0-.12.81V-4.53a1.911,1.911,0,0,0,.45,1.38.859.859,0,0,0,.63.24.948.948,0,0,0,.96-.81,2.1,2.1,0,0,0,.12-.81Z" transform="translate(-1.2 22.29)" fill="#867d74"/>
</svg>
